<?xml version="1.0" standalone="no"?>
<!DOCTYPE svg PUBLIC "-//W3C//DTD SVG 20010904//EN"
 "http://www.w3.org/TR/2001/REC-SVG-20010904/DTD/svg10.dtd">
<svg version="1.0" xmlns="http://www.w3.org/2000/svg"
 width="512.000000pt" height="512.000000pt" viewBox="0 0 512.000000 512.000000"
 preserveAspectRatio="xMidYMid meet">

<g transform="translate(0.000000,512.000000) scale(0.100000,-0.100000)"
fill="#000000" stroke="none">
<path d="M771 4574 c-30 -8 -69 -23 -87 -34 -46 -29 -103 -95 -128 -149 l-21
-46 0 -1785 0 -1785 26 -55 c33 -70 89 -126 159 -159 l55 -26 1785 0 1785 0
56 26 c71 33 125 87 158 158 l26 56 0 1785 0 1785 -28 57 c-34 68 -108 139
-175 165 -44 17 -99 18 -859 21 -724 2 -813 1 -813 -13 0 -8 4 -15 9 -15 5 0
11 -8 14 -17 8 -24 40 -77 50 -81 4 -2 7 -12 7 -23 0 -10 4 -19 9 -19 5 0 14
-13 21 -30 7 -16 16 -30 21 -30 5 0 9 -9 9 -19 0 -11 3 -21 8 -23 6 -3 36 -55
66 -115 6 -13 14 -23 19 -23 4 0 7 -9 7 -20 0 -11 5 -20 10 -20 6 0 10 -9 10
-19 0 -11 4 -21 9 -23 4 -1 28 -39 51 -83 24 -44 55 -102 70 -130 15 -27 55
-104 90 -170 35 -66 73 -138 85 -161 31 -56 40 -74 56 -109 8 -16 16 -32 19
-35 3 -3 14 -25 26 -50 12 -25 35 -74 53 -109 17 -35 31 -70 31 -77 0 -7 3
-14 8 -16 10 -4 52 -87 52 -104 0 -8 5 -14 10 -14 6 0 10 -8 10 -17 0 -10 9
-33 20 -51 11 -18 20 -41 20 -52 0 -11 5 -20 10 -20 6 0 10 -9 10 -20 0 -11 5
-20 10 -20 6 0 10 -7 10 -15 0 -8 9 -30 20 -50 11 -20 20 -44 20 -55 0 -11 5
-20 10 -20 6 0 10 -7 10 -15 0 -8 4 -23 9 -33 5 -9 14 -30 21 -47 7 -16 16
-38 21 -47 5 -10 9 -25 9 -33 0 -8 4 -23 9 -33 5 -9 14 -30 21 -47 7 -16 16
-38 21 -47 5 -10 9 -28 9 -41 0 -13 4 -27 9 -32 16 -17 54 -166 76 -295 28
-164 10 -344 -51 -530 -10 -30 -22 -56 -26 -58 -4 -2 -8 -10 -8 -19 0 -14 -78
-172 -91 -183 -3 -3 -20 -27 -39 -55 -18 -27 -46 -62 -62 -78 -15 -15 -28 -29
-28 -31 0 -6 -57 -66 -63 -66 -3 0 -26 -20 -51 -44 -25 -24 -59 -52 -75 -62
-17 -10 -31 -22 -31 -26 0 -4 -9 -8 -20 -8 -11 0 -20 -4 -20 -8 0 -10 -117
-72 -136 -72 -8 0 -14 -4 -14 -10 0 -5 -9 -10 -19 -10 -11 0 -23 -4 -26 -10
-3 -5 -17 -10 -31 -10 -13 0 -24 -4 -24 -10 0 -5 -13 -10 -29 -10 -17 0 -33
-4 -36 -10 -3 -5 -19 -10 -35 -10 -16 0 -31 -4 -34 -9 -19 -30 -478 -30 -510
0 -6 5 -19 9 -30 9 -21 0 -80 17 -108 31 -10 5 -24 9 -33 9 -8 0 -30 9 -50 20
-20 11 -42 20 -50 20 -8 0 -15 5 -15 10 0 6 -9 10 -20 10 -11 0 -20 5 -20 10
0 6 -9 10 -20 10 -11 0 -20 4 -20 8 0 5 -12 15 -27 23 -16 8 -37 22 -47 32
-11 9 -25 17 -31 17 -6 0 -17 9 -25 20 -8 11 -18 20 -23 20 -11 0 -169 159
-209 211 -15 18 -28 40 -28 47 0 6 -4 12 -8 12 -5 0 -20 21 -33 48 -13 26 -27
49 -31 50 -5 2 -8 12 -8 23 0 10 -3 19 -7 19 -9 0 -33 49 -33 67 0 7 -4 13
-10 13 -5 0 -10 14 -10 30 0 17 -4 30 -10 30 -5 0 -10 13 -10 29 0 17 -4 33
-10 36 -5 3 -10 19 -10 34 0 15 -4 31 -9 37 -28 28 -30 411 -2 479 17 42 31
92 31 113 0 12 4 22 9 22 5 0 12 15 17 33 7 25 9 13 12 -60 l3 -93 198 0 c172
0 200 2 205 16 3 9 6 177 6 375 l0 359 323 2 322 3 3 188 2 187 -315 2 c-173
0 -320 1 -327 2 -13 1 -23 -17 -104 -189 -30 -66 -73 -157 -95 -203 -21 -46
-39 -87 -39 -93 0 -5 -4 -17 -9 -27 -5 -9 -19 -39 -31 -67 -12 -27 -26 -58
-31 -67 -5 -10 -9 -27 -9 -38 0 -11 -4 -20 -10 -20 -5 0 -10 -7 -10 -15 0 -8
-8 -34 -19 -58 -10 -23 -24 -61 -31 -85 -8 -24 -17 -45 -22 -48 -4 -3 -8 114
-8 260 l0 266 -335 0 -335 0 0 195 c0 107 1 196 3 197 1 1 151 5 332 8 l330 5
3 348 2 347 205 0 205 0 0 -327 c0 -367 -2 -359 66 -223 21 41 42 77 46 78 5
2 8 12 8 23 0 10 5 19 10 19 6 0 10 9 10 20 0 11 5 20 10 20 6 0 10 9 10 20 0
11 5 20 10 20 6 0 10 9 10 20 0 11 5 20 10 20 6 0 10 9 10 20 0 11 3 20 8 20
4 0 18 25 32 55 14 30 28 55 33 55 4 0 7 8 7 18 0 10 4 22 9 28 9 8 57 95 85
151 6 13 14 23 19 23 4 0 7 9 7 20 0 11 5 20 10 20 6 0 10 9 10 19 0 11 4 21
8 23 5 2 24 32 43 68 18 36 36 67 39 70 4 3 20 30 37 60 30 55 81 143 122 213
l23 37 -914 -1 c-767 0 -922 -3 -967 -15z"/>
</g>
</svg>
